#!OML:ASF X:\für Bonn\!DataBase\2005_08_12_Daniel\c3d\Daniel.ASF
:FULLY-SPECIFIED
:DEGREES
1
root -23.221 16.5449 24.6937 -469.463 83.4673 -472.538
lowerback 17.235 0.924343 -0.451261
upperback 4.65769 1.2564 -3.1804
thorax -4.6032 0.749015 -3.39047
lowerneck 0.420247 9.4785 -2.48361
upperneck 1.38763 13.0352 -11.269
head 1.0248 6.49879 -3.02317
rclavicle 5.56597e-015 -3.49861e-014
rhumerus -42.0612 -10.1736 -84.8339
rradius 26.5097
rwrist 16.1681
rhand -24.9786 23.7746
rfingers 7.12502
rthumb 1.53226 -6.1996
lclavicle 5.56597e-015 -3.49861e-014
lhumerus -39.2054 2.20159 89.1073
lradius 90.1499
lwrist 14.434
lhand -12.3801 -10.6929
lfingers 7.12502
lthumb 13.6907 18.8368
rfemur -29.277 -8.04205 21.1974
rtibia 82.1653
rfoot -0.616493 -3.37173
rtoes -12.2403
lfemur -13.5354 -10.793 -25.3767
ltibia 55.1588
lfoot -39.9878 1.71784
ltoes -2.84101
2
root -23.092 16.4937 24.6693 -472.406 83.0984 -475.394
lowerback 17.387 0.711921 -0.450477
upperback 4.66461 0.979854 -3.08834
thorax -4.69365 0.612496 -3.23973
lowerneck 0.504203 9.63173 -2.35299
upperneck 1.12107 13.215 -11.5038
head 0.961989 6.60355 -3.13014
rclavicle -3.97569e-015 -4.92986e-014
rhumerus -42.7322 -10.5686 -83.4673
rradius 25.8551
rwrist 17.2498
rhand -25.3858 24.2244
rfingers 7.12502
rthumb 1.13898 -5.75232
lclavicle -3.97569e-015 -4.92986e-014
lhumerus -38.6028 1.87616 88.7602
lradius 91.5025
lwrist 14.1672
lhand -12.6526 -10.8627
lfingers 7.12502
lthumb 13.4281 18.6845
rfemur -30.903 -7.4252 21.4962
rtibia 83.6241
rfoot -0.790884 -1.9205
rtoes -13.6583
lfemur -12.6964 -11.129 -25.1194
ltibia 54.4789
lfoot -39.8589 0.512151
ltoes -0.580616
3
root -22.9591 16.4576 24.6421 -475.09 82.6942 -477.976
lowerback 17.5596 0.500794 -0.415677
upperback 4.67473 0.712056 -2.97783
thorax -4.78988 0.480265 -3.08962
lowerneck 0.590074 9.77508 -2.29966
upperneck 0.858523 13.3808 -11.7112
head 0.892236 6.70163 -3.21627
rclavicle 2.22639e-014 -1.11319e-014
rhumerus -43.509 -10.3312 -82.3885
rradius 25.4471
rwrist 17.9582
rhand -25.8796 24.5665
rfingers 7.12502
rthumb 0.662032 -5.41224
lclavicle 2.22639e-014 -1.11319e-014
lhumerus -37.9386 1.5155 88.4082
lradius 92.8024
lwrist 13.8903
lhand -13.0341 -11.0689
lfingers 7.12502
lthumb 13.0603 18.5022
rfemur -32.4654 -6.88168 21.8175
rtibia 84.7946
rfoot -0.753141 -0.808627
rtoes -14.3077
lfemur -11.8503 -11.3558 -24.8619
ltibia 53.8228
lfoot -39.7071 -0.645893
ltoes 1.50735
4
root -22.8193 16.4415 24.6111 -477.258 82.216 -480.049
lowerback 17.6839 0.272236 -0.246858
upperback 4.68534 0.445649 -2.86304
thorax -4.858 0.347741 -3.00914
lowerneck 0.80394 9.91751 -2.38945
upperneck 0.475171 13.5176 -11.8388
head 0.743614 6.79546 -3.26534
rclavicle -7.95139e-015 -5.08889e-014
rhumerus -44.3592 -9.45978 -81.6942
rradius 25.2484
rwrist 18.2026
rhand -26.5169 24.8098
rfingers 7.12502
rthumb 0.0464658 -5.1699
lclavicle -7.95139e-015 -5.08889e-014
lhumerus -37.2863 1.23856 88.0648
lradius 94.1444
lwrist 13.6158
lhand -13.5012 -11.185
lfingers 7.12502
lthumb 12.6101 18.4144
rfemur -33.8799 -6.36893 22.2492
rtibia 85.6037
rfoot -0.620209 -0.209954
rtoes -14.615
lfemur -10.9682 -11.4819 -24.5612
ltibia 53.1735
lfoot -39.583 -1.57026
ltoes 3.01521
